<svg width="749" height="979" viewBox="0 0 749 979" fill="none" xmlns="http://www.w3.org/2000/svg">
<path d="M692.931 370.251C735.38 263.263 765.533 229.513 688.37 95.273C762.853 258.899 704.969 303.107 652.659 449C598.159 601 717.641 721.198 803.756 755.001C576.693 624.259 650.482 477.239 692.931 370.251Z" fill="url(#paint0_linear)"/>
<path d="M670.623 263.61C667.333 338.918 609.159 431 625.659 571.5C596.659 479.5 638.185 377.335 656.659 293.5C671.437 226.432 652.516 155.318 638.92 128.875C652.109 148.197 673.254 203.364 670.623 263.61Z" fill="url(#paint1_linear)"/>
<path d="M578.261 489C568.901 386.587 570.507 228.876 536.772 194.331C543.389 220.375 562.668 407.883 578.261 489Z" fill="url(#paint2_linear)"/>
<path d="M643.169 691.93C734.945 813.812 809.538 807.023 858.139 778.248C767.832 853.183 666.706 763.247 580.884 628.728C495.061 494.209 418.269 386.159 365.85 323.448C447.364 376.346 551.392 570.049 643.169 691.93Z" fill="url(#paint3_linear)"/>
<path d="M475.059 862.661C319.551 749.478 262.45 692.164 139.231 685.426C296.172 705.558 412.309 851.627 491.688 895.442C621.974 968.113 720.41 953.077 783.691 904.49C725.581 937.813 630.567 975.844 475.059 862.661Z" fill="url(#paint4_linear)"/>
<path d="M479.157 832.28C323.291 714.058 230.904 638.099 99.3827 636.121C220.534 626.323 300.416 681.423 474.105 811.487C647.793 941.552 715.57 931.077 807.455 882.543C720.052 948.037 635.023 950.503 479.157 832.28Z" fill="url(#paint5_linear)"/>
<path d="M518.966 818.132C694.516 958.837 774.819 905.418 833.91 852.362C731.949 943.91 612.649 879.648 526.909 808.332C299.728 600.439 198.349 561.464 49.364 552.684C270.196 591.514 343.416 677.427 518.966 818.132Z" fill="url(#paint6_linear)"/>
<path d="M548.339 799.66C720.958 947.916 804.471 878.287 848.657 825.098C718.699 941.58 615.738 847.93 425.824 668.641C273.893 525.211 239.14 527.583 131.728 487.547C221.821 527.026 282.704 563.21 322.51 598.225C435.637 697.736 479.496 740.533 548.339 799.66Z" fill="url(#paint7_linear)"/>
<path d="M588.294 791.757C714.562 908.507 805.744 871.046 855.248 808.841C789.141 880.567 689.062 876.654 590.84 777.276C494.657 679.961 338.875 507.747 206.186 448.065C203.337 446.74 200.534 445.525 197.781 444.424C200.571 445.586 203.373 446.8 206.186 448.065C306.762 494.839 465.504 678.223 588.294 791.757Z" fill="url(#paint8_linear)"/>
<path d="M580.869 720.785C716.247 877.702 793.876 846.567 859.001 794.572C793.398 877.584 696.793 868.061 584.714 741.366C472.636 614.67 333.638 457.117 257.017 397.614C335.256 433.764 445.491 563.868 580.869 720.785Z" fill="url(#paint9_linear)"/>
<path d="M620.042 710.256C709.871 821.984 792.166 835.07 859.067 787.119C777.923 873.619 676.452 799.794 616.647 729.564C556.841 659.334 395.168 446.787 312.355 358.827C388.684 405.838 521.025 587.102 620.042 710.256Z" fill="url(#paint10_linear)"/>
<path d="M628.503 619.685C668.722 695.179 728.09 746.672 795.892 778.499C668.615 752.387 592.5 590.962 559.097 519.154C525.694 447.346 443.996 324.748 418.35 286.65C476.22 325.438 591.253 549.763 628.503 619.685Z" fill="url(#paint11_linear)"/>
<path d="M549.633 444.5C535.604 368.635 498.276 262.547 473.916 238.359C480.108 266.817 530.286 377.652 549.633 444.5Z" fill="url(#paint12_linear)"/>
<path d="M596.14 159.918C662.191 230.003 587.159 361 598.651 522.5C590.761 503.696 585.608 437.125 602.159 343C618.709 248.875 610.925 196.107 596.14 159.918Z" fill="url(#paint13_linear)"/>
<defs>
<linearGradient id="paint0_linear" x1="800.596" y1="115.007" x2="691.53" y2="735.267" gradientUnits="userSpaceOnUse">
<stop offset="0.333333" stop-color="#D4C9C9"/>
<stop offset="1" stop-color="white"/>
</linearGradient>
<linearGradient id="paint1_linear" x1="668.768" y1="134.124" x2="593.017" y2="564.927" gradientUnits="userSpaceOnUse">
<stop offset="0.333333" stop-color="#D4C9C9"/>
<stop offset="1" stop-color="white"/>
</linearGradient>
<linearGradient id="paint2_linear" x1="583.216" y1="208.652" x2="534.201" y2="487.407" gradientUnits="userSpaceOnUse">
<stop offset="0.333333" stop-color="#D4C9C9"/>
<stop offset="1" stop-color="white"/>
</linearGradient>
<linearGradient id="paint3_linear" x1="643.399" y1="372.251" x2="573.61" y2="769.142" gradientUnits="userSpaceOnUse">
<stop offset="0.333333" stop-color="#D4C9C9"/>
<stop offset="1" stop-color="white"/>
</linearGradient>
<linearGradient id="paint4_linear" x1="470.944" y1="741.024" x2="441.061" y2="910.974" gradientUnits="userSpaceOnUse">
<stop offset="0.333333" stop-color="#D4C9C9"/>
<stop offset="1" stop-color="white"/>
</linearGradient>
<linearGradient id="paint5_linear" x1="465.555" y1="690.313" x2="431.347" y2="884.857" gradientUnits="userSpaceOnUse">
<stop offset="0.333333" stop-color="#D4C9C9"/>
<stop offset="1" stop-color="white"/>
</linearGradient>
<linearGradient id="paint6_linear" x1="456.287" y1="619.211" x2="414.286" y2="858.068" gradientUnits="userSpaceOnUse">
<stop offset="0.333333" stop-color="#D4C9C9"/>
<stop offset="1" stop-color="white"/>
</linearGradient>
<linearGradient id="paint7_linear" x1="508.228" y1="553.75" x2="457.382" y2="842.919" gradientUnits="userSpaceOnUse">
<stop offset="0.333333" stop-color="#D4C9C9"/>
<stop offset="1" stop-color="white"/>
</linearGradient>
<linearGradient id="paint8_linear" x1="547.733" y1="505.959" x2="491.534" y2="825.569" gradientUnits="userSpaceOnUse">
<stop offset="0.333333" stop-color="#D4C9C9"/>
<stop offset="1" stop-color="white"/>
</linearGradient>
<linearGradient id="paint9_linear" x1="582.835" y1="454.905" x2="520.716" y2="808.179" gradientUnits="userSpaceOnUse">
<stop offset="0.333333" stop-color="#D4C9C9"/>
<stop offset="1" stop-color="white"/>
</linearGradient>
<linearGradient id="paint10_linear" x1="614.039" y1="411.874" x2="547.922" y2="787.883" gradientUnits="userSpaceOnUse">
<stop offset="0.333333" stop-color="#D4C9C9"/>
<stop offset="1" stop-color="white"/>
</linearGradient>
<linearGradient id="paint11_linear" x1="643.406" y1="326.223" x2="570.837" y2="738.926" gradientUnits="userSpaceOnUse">
<stop offset="0.333333" stop-color="#D4C9C9"/>
<stop offset="1" stop-color="white"/>
</linearGradient>
<linearGradient id="paint12_linear" x1="529.622" y1="255.21" x2="496.733" y2="442.253" gradientUnits="userSpaceOnUse">
<stop offset="0.333333" stop-color="#D4C9C9"/>
<stop offset="1" stop-color="white"/>
</linearGradient>
<linearGradient id="paint13_linear" x1="628.721" y1="165.647" x2="565.913" y2="522.84" gradientUnits="userSpaceOnUse">
<stop offset="0.333333" stop-color="#D4C9C9"/>
<stop offset="1" stop-color="white"/>
</linearGradient>
</defs>
</svg>
