<svg width="974" height="979" viewBox="0 0 974 979" fill="none" xmlns="http://www.w3.org/2000/svg">
<path d="M280.227 370.251C237.778 263.263 207.626 229.513 284.789 95.273C210.305 258.899 268.19 303.107 320.5 449C375 601 255.517 721.198 169.402 755.001C396.465 624.259 322.677 477.239 280.227 370.251Z" fill="url(#paint0_linear)"/>
<path d="M302.536 263.61C305.826 338.918 364 431 347.5 571.5C376.5 479.5 334.973 377.335 316.5 293.5C301.721 226.432 320.643 155.318 334.239 128.875C321.049 148.197 299.904 203.364 302.536 263.61Z" fill="url(#paint1_linear)"/>
<path d="M394.897 489C404.258 386.587 402.651 228.876 436.386 194.331C429.769 220.375 410.491 407.883 394.897 489Z" fill="url(#paint2_linear)"/>
<path d="M329.99 691.93C238.213 813.812 163.621 807.023 115.02 778.248C205.327 853.183 306.453 763.247 392.275 628.728C478.097 494.209 554.889 386.159 607.309 323.448C525.795 376.346 421.766 570.049 329.99 691.93Z" fill="url(#paint3_linear)"/>
<path d="M498.1 862.661C653.608 749.478 710.708 692.164 833.928 685.426C676.986 705.558 560.85 851.627 481.471 895.442C351.184 968.113 252.749 953.077 189.468 904.49C247.577 937.813 342.591 975.844 498.1 862.661Z" fill="url(#paint4_linear)"/>
<path d="M494.002 832.28C649.868 714.058 742.255 638.099 873.776 636.121C752.625 626.323 672.742 681.423 499.054 811.487C325.365 941.552 257.589 931.077 165.704 882.543C253.107 948.037 338.135 950.503 494.002 832.28Z" fill="url(#paint5_linear)"/>
<path d="M454.192 818.132C278.643 958.837 198.339 905.418 139.248 852.362C241.209 943.91 360.51 879.648 446.249 808.332C673.431 600.439 774.809 561.464 923.795 552.684C702.963 591.514 629.742 677.427 454.192 818.132Z" fill="url(#paint6_linear)"/>
<path d="M424.819 799.66C252.2 947.916 168.688 878.287 124.502 825.098C254.46 941.58 357.42 847.93 547.335 668.641C699.266 525.211 734.019 527.583 841.431 487.547C751.337 527.026 690.455 563.21 650.649 598.225C537.522 697.736 493.662 740.533 424.819 799.66Z" fill="url(#paint7_linear)"/>
<path d="M384.864 791.757C258.596 908.507 167.414 871.046 117.911 808.841C184.017 880.567 284.097 876.654 382.318 777.276C478.501 679.961 634.284 507.747 766.973 448.065C769.822 446.74 772.624 445.525 775.378 444.424C772.587 445.586 769.785 446.8 766.973 448.065C666.396 494.839 507.654 678.223 384.864 791.757Z" fill="url(#paint8_linear)"/>
<path d="M392.29 720.785C256.912 877.702 179.283 846.567 114.158 794.572C179.76 877.584 276.365 868.061 388.444 741.366C500.523 614.67 639.521 457.117 716.141 397.614C637.903 433.764 527.667 563.868 392.29 720.785Z" fill="url(#paint9_linear)"/>
<path d="M353.117 710.256C263.287 821.984 180.993 835.07 114.092 787.119C195.236 873.619 296.707 799.794 356.512 729.564C416.317 659.334 577.991 446.787 660.803 358.827C584.475 405.838 452.134 587.102 353.117 710.256Z" fill="url(#paint10_linear)"/>
<path d="M344.655 619.685C304.436 695.179 245.068 746.672 177.266 778.499C304.543 752.387 380.658 590.962 414.061 519.154C447.464 447.346 529.163 324.748 554.808 286.65C496.939 325.438 381.906 549.763 344.655 619.685Z" fill="url(#paint11_linear)"/>
<path d="M423.526 444.5C437.555 368.635 474.883 262.547 499.243 238.359C493.05 266.817 442.873 377.652 423.526 444.5Z" fill="url(#paint12_linear)"/>
<path d="M377.019 159.918C310.968 230.003 386 361 374.507 522.5C382.397 503.696 387.551 437.125 371 343C354.449 248.875 362.233 196.107 377.019 159.918Z" fill="url(#paint13_linear)"/>
<defs>
<linearGradient id="paint0_linear" x1="172.563" y1="115.007" x2="281.628" y2="735.267" gradientUnits="userSpaceOnUse">
<stop offset="0.333333" stop-color="#D4C9C9"/>
<stop offset="1" stop-color="white"/>
</linearGradient>
<linearGradient id="paint1_linear" x1="304.39" y1="134.124" x2="380.142" y2="564.927" gradientUnits="userSpaceOnUse">
<stop offset="0.333333" stop-color="#D4C9C9"/>
<stop offset="1" stop-color="white"/>
</linearGradient>
<linearGradient id="paint2_linear" x1="389.942" y1="208.652" x2="438.958" y2="487.407" gradientUnits="userSpaceOnUse">
<stop offset="0.333333" stop-color="#D4C9C9"/>
<stop offset="1" stop-color="white"/>
</linearGradient>
<linearGradient id="paint3_linear" x1="329.76" y1="372.251" x2="399.549" y2="769.142" gradientUnits="userSpaceOnUse">
<stop offset="0.333333" stop-color="#D4C9C9"/>
<stop offset="1" stop-color="white"/>
</linearGradient>
<linearGradient id="paint4_linear" x1="502.214" y1="741.024" x2="532.098" y2="910.974" gradientUnits="userSpaceOnUse">
<stop offset="0.333333" stop-color="#D4C9C9"/>
<stop offset="1" stop-color="white"/>
</linearGradient>
<linearGradient id="paint5_linear" x1="507.604" y1="690.313" x2="541.812" y2="884.857" gradientUnits="userSpaceOnUse">
<stop offset="0.333333" stop-color="#D4C9C9"/>
<stop offset="1" stop-color="white"/>
</linearGradient>
<linearGradient id="paint6_linear" x1="516.872" y1="619.211" x2="558.872" y2="858.068" gradientUnits="userSpaceOnUse">
<stop offset="0.333333" stop-color="#D4C9C9"/>
<stop offset="1" stop-color="white"/>
</linearGradient>
<linearGradient id="paint7_linear" x1="464.93" y1="553.75" x2="515.777" y2="842.919" gradientUnits="userSpaceOnUse">
<stop offset="0.333333" stop-color="#D4C9C9"/>
<stop offset="1" stop-color="white"/>
</linearGradient>
<linearGradient id="paint8_linear" x1="425.425" y1="505.959" x2="481.625" y2="825.569" gradientUnits="userSpaceOnUse">
<stop offset="0.333333" stop-color="#D4C9C9"/>
<stop offset="1" stop-color="white"/>
</linearGradient>
<linearGradient id="paint9_linear" x1="390.323" y1="454.905" x2="452.442" y2="808.179" gradientUnits="userSpaceOnUse">
<stop offset="0.333333" stop-color="#D4C9C9"/>
<stop offset="1" stop-color="white"/>
</linearGradient>
<linearGradient id="paint10_linear" x1="359.12" y1="411.874" x2="425.237" y2="787.883" gradientUnits="userSpaceOnUse">
<stop offset="0.333333" stop-color="#D4C9C9"/>
<stop offset="1" stop-color="white"/>
</linearGradient>
<linearGradient id="paint11_linear" x1="329.753" y1="326.223" x2="402.322" y2="738.926" gradientUnits="userSpaceOnUse">
<stop offset="0.333333" stop-color="#D4C9C9"/>
<stop offset="1" stop-color="white"/>
</linearGradient>
<linearGradient id="paint12_linear" x1="443.536" y1="255.21" x2="476.426" y2="442.253" gradientUnits="userSpaceOnUse">
<stop offset="0.333333" stop-color="#D4C9C9"/>
<stop offset="1" stop-color="white"/>
</linearGradient>
<linearGradient id="paint13_linear" x1="344.437" y1="165.647" x2="407.245" y2="522.84" gradientUnits="userSpaceOnUse">
<stop offset="0.333333" stop-color="#D4C9C9"/>
<stop offset="1" stop-color="white"/>
</linearGradient>
</defs>
</svg>
